<?xml version="1.0" standalone="no"?>
<!DOCTYPE svg PUBLIC "-//W3C//DTD SVG 20010904//EN"
 "http://www.w3.org/TR/2001/REC-SVG-20010904/DTD/svg10.dtd">
<svg version="1.0" xmlns="http://www.w3.org/2000/svg"
 width="50" height="50" viewBox="0 0 512.000000 512.000000"
 preserveAspectRatio="xMidYMid meet">

<g transform="translate(0.000000,512.000000) scale(0.100000,-0.100000)"
fill="#000000" stroke="none">
<path d="M980 2976 c-84 -18 -149 -54 -213 -117 -168 -168 -167 -430 2 -600
194 -194 510 -156 660 79 79 126 81 307 5 438 -31 53 -119 136 -173 164 -45
22 -158 50 -201 49 -14 0 -50 -6 -80 -13z"/>
<path d="M2487 2980 c-222 -39 -383 -262 -348 -481 38 -233 257 -396 482 -360
282 46 442 341 324 598 -79 174 -271 276 -458 243z"/>
<path d="M3964 2975 c-82 -18 -137 -47 -201 -107 -90 -86 -133 -185 -133 -308
0 -124 43 -222 135 -309 168 -159 423 -155 586 8 170 171 170 431 0 602 -63
63 -138 102 -225 118 -72 13 -84 13 -162 -4z"/>
</g>
</svg>
