<svg width="288" height="288" viewBox="0 0 288 288" fill="none" xmlns="http://www.w3.org/2000/svg">
<path d="M288 0H0V288H288V0Z" fill="white"/>
<path d="M152.265 60.058V29.0661L119.207 49.7274V72.4547L102.678 82.7853V107.579C102.678 107.579 110.942 126.174 110.942 132.372C110.942 136.936 107.242 140.637 102.678 140.637V148.901H152.265V91.0498H160.529V66.2563L152.265 60.058Z" fill="#FFC252"/>
<path d="M102.678 82.7853V107.579C102.678 107.579 110.942 126.174 110.942 132.372C110.942 136.936 107.242 140.637 102.678 140.637V148.901H119.207V72.4547L102.678 82.7853Z" fill="#FFDE8A"/>
<path d="M152.264 29.0661L135.735 39.3967V148.901H152.264V29.0661Z" fill="#FFDE8A"/>
<path d="M144 80.7192V84.8514" stroke="#34303D" stroke-width="7.34621" stroke-miterlimit="10"/>
<path d="M152.265 80.7192V84.8514" stroke="#34303D" stroke-width="7.34621" stroke-miterlimit="10"/>
<path d="M144 72.4547V76.5869" stroke="#34303D" stroke-width="7.34621" stroke-miterlimit="10"/>
<path d="M144 64.1902V68.3224" stroke="#34303D" stroke-width="7.34621" stroke-miterlimit="10"/>
<path d="M144 55.9257V60.058" stroke="#34303D" stroke-width="7.34621" stroke-miterlimit="10"/>
<path d="M144 47.6612V51.7935" stroke="#34303D" stroke-width="7.34621" stroke-miterlimit="10"/>
<path d="M144 88.9837V93.1159" stroke="#34303D" stroke-width="7.34621" stroke-miterlimit="10"/>
<path d="M144 97.2482V101.38" stroke="#34303D" stroke-width="7.34621" stroke-miterlimit="10"/>
<path d="M144 105.513V109.645" stroke="#34303D" stroke-width="7.34621" stroke-miterlimit="10"/>
<path d="M144 113.777V117.909" stroke="#34303D" stroke-width="7.34621" stroke-miterlimit="10"/>
<path d="M144 122.042V126.174" stroke="#34303D" stroke-width="7.34621" stroke-miterlimit="10"/>
<path d="M144 130.306V134.438" stroke="#34303D" stroke-width="7.34621" stroke-miterlimit="10"/>
<path d="M144 138.571V142.703" stroke="#34303D" stroke-width="7.34621" stroke-miterlimit="10"/>
<path d="M152.265 72.4547V76.5869" stroke="#34303D" stroke-width="7.34621" stroke-miterlimit="10"/>
<path d="M160.529 76.5869V66.2563L152.265 60.058V29.0661H150.199L119.207 49.7273V72.4547L102.678 82.7853V101.38" stroke="#34303D" stroke-width="7.34621" stroke-miterlimit="10"/>
<path d="M185.323 126.174V91.0498H152.265V148.901" stroke="#34303D" stroke-width="7.34621" stroke-miterlimit="10"/>
<path d="M177.058 91.0498V82.7853H160.529V91.0498" stroke="#34303D" stroke-width="7.34621" stroke-miterlimit="10"/>
<path d="M158.463 99.3143H179.124" stroke="#34303D" stroke-width="7.34621" stroke-miterlimit="10"/>
<path d="M158.463 107.579H179.124" stroke="#34303D" stroke-width="7.34621" stroke-miterlimit="10"/>
<path d="M158.463 115.843H179.124" stroke="#34303D" stroke-width="7.34621" stroke-miterlimit="10"/>
<path d="M158.463 124.108H179.124" stroke="#34303D" stroke-width="7.34621" stroke-miterlimit="10"/>
<path d="M158.463 132.372H172.926" stroke="#34303D" stroke-width="7.34621" stroke-miterlimit="10"/>
<path d="M158.463 140.637H166.727" stroke="#34303D" stroke-width="7.34621" stroke-miterlimit="10"/>
<path d="M195.653 140.637C194.872 140.637 194.147 140.866 193.527 141.242C193.542 141.038 193.587 140.845 193.587 140.637C193.587 136.073 189.891 132.372 185.323 132.372C180.754 132.372 177.058 136.073 177.058 140.637C174.775 140.637 172.926 142.488 172.926 144.769C172.926 147.052 174.775 148.901 177.058 148.901H195.653C197.936 148.901 199.785 147.052 199.785 144.769C199.785 142.488 197.936 140.637 195.653 140.637Z" stroke="#34303D" stroke-width="7.34621" stroke-miterlimit="10" stroke-linejoin="round"/>
<path d="M102.678 107.579C102.678 107.579 94.4131 126.174 94.4131 132.372C94.4131 136.936 98.1135 140.637 102.678 140.637C107.242 140.637 110.942 136.936 110.942 132.372C110.942 126.174 102.678 107.579 102.678 107.579Z" stroke="#34303D" stroke-width="7.34621" stroke-miterlimit="10" stroke-linejoin="round"/>
<path d="M102.678 130.306V148.901" stroke="#34303D" stroke-width="7.34621" stroke-miterlimit="10" stroke-linejoin="round"/>
<path d="M84.0825 159.232V148.901H203.918V159.232" fill="#57DCF2"/>
<path d="M84.0825 148.901H203.918" stroke="#34303D" stroke-width="7.34621" stroke-miterlimit="10" stroke-linejoin="round"/>
<path d="M37.7253 210.028V195.963L29.2271 167.821H35.6693L40.8358 188.013H41.131L46.2553 167.821H52.6764L44.1254 195.963V210.028H37.7253ZM64.5873 210.397C63.8633 210.397 63.1252 210.341 62.3731 210.228C61.628 210.109 60.904 209.87 60.2011 209.511C59.4982 209.146 58.8374 208.626 58.2188 207.951C57.6073 207.276 57.0696 206.387 56.6056 205.283C56.1417 204.18 55.7797 202.82 55.5196 201.203C55.2525 199.593 55.119 197.667 55.119 195.425V190.09C55.119 187.882 55.256 185.992 55.5302 184.417C55.8043 182.843 56.1733 181.521 56.6373 180.453C57.1082 179.377 57.6565 178.523 58.2821 177.891C58.9077 177.258 59.572 176.773 60.2749 176.435C60.9778 176.098 61.6983 175.873 62.4364 175.761C63.1814 175.655 63.9055 175.602 64.6084 175.602C65.2832 175.602 65.9861 175.652 66.7171 175.75C67.4411 175.849 68.1476 176.059 68.8364 176.383C69.5323 176.706 70.186 177.184 70.7976 177.817C71.4161 178.449 71.9609 179.3 72.4319 180.368C72.9028 181.444 73.2754 182.776 73.5495 184.364C73.8166 185.953 73.9502 187.861 73.9502 190.09V195.425C73.9502 197.632 73.8096 199.533 73.5284 201.129C73.2543 202.732 72.8782 204.085 72.4002 205.188C71.9222 206.292 71.3705 207.185 70.7449 207.866C70.1193 208.548 69.4585 209.079 68.7626 209.459C68.0738 209.838 67.3708 210.091 66.6539 210.218C65.9369 210.337 65.248 210.397 64.5873 210.397ZM64.64 205.578C65.1953 205.578 65.6663 205.434 66.0529 205.146C66.4465 204.858 66.7593 204.384 66.9913 203.723C67.2303 203.069 67.406 202.201 67.5185 201.118C67.6239 200.043 67.6766 198.704 67.6766 197.101V188.73C67.6766 187.127 67.6239 185.784 67.5185 184.702C67.406 183.612 67.2303 182.734 66.9913 182.066C66.7593 181.398 66.4465 180.917 66.0529 180.621C65.6663 180.326 65.1953 180.179 64.64 180.179C64.0425 180.179 63.5435 180.326 63.1428 180.621C62.7351 180.917 62.4012 181.398 62.1411 182.066C61.874 182.734 61.6842 183.612 61.5718 184.702C61.4593 185.784 61.4031 187.127 61.4031 188.73V197.101C61.4031 198.704 61.4593 200.043 61.5718 201.118C61.6842 202.201 61.874 203.069 62.1411 203.723C62.4012 204.384 62.7351 204.858 63.1428 205.146C63.5435 205.434 64.0425 205.578 64.64 205.578ZM79.5338 202.067V176.003H85.7862V201.572C85.7862 203.076 86.0182 204.12 86.4821 204.703C86.9461 205.287 87.6209 205.578 88.5065 205.578C89.1321 205.578 89.7437 205.406 90.3412 205.062C90.9316 204.717 91.4658 204.222 91.9438 203.575V176.003H98.1963V210.028H93.4305L92.8084 206.39H92.7873C92.2882 207.171 91.7646 207.817 91.2163 208.33C90.661 208.851 90.0846 209.265 89.4871 209.575C88.8826 209.877 88.2675 210.095 87.6419 210.228C87.0163 210.362 86.3907 210.429 85.7651 210.429C83.7689 210.429 82.233 209.736 81.1575 208.352C80.075 206.967 79.5338 204.872 79.5338 202.067ZM104.723 210.028V176.003H109.288L109.836 179.462C110.525 178.175 111.319 177.212 112.219 176.573C113.119 175.926 114.036 175.602 114.971 175.602C116.771 175.602 118.099 176.154 118.957 177.258C119.814 178.361 120.243 180.017 120.243 182.224C120.243 182.505 120.222 182.839 120.18 183.226C120.138 183.612 120.078 184.016 120.001 184.438C119.93 184.86 119.842 185.282 119.737 185.703C119.624 186.118 119.512 186.501 119.4 186.853H115.045V183.69C115.045 182.994 114.999 182.424 114.908 181.981C114.824 181.539 114.708 181.18 114.56 180.906C114.405 180.632 114.23 180.442 114.033 180.337C113.836 180.231 113.622 180.179 113.39 180.179C112.897 180.179 112.441 180.337 112.019 180.653C111.604 180.976 111.256 181.426 110.975 182.003V210.028H104.723ZM144.509 210.397C143.848 210.397 143.135 210.344 142.368 210.239C141.602 210.133 140.836 209.905 140.07 209.554C139.304 209.209 138.569 208.721 137.866 208.088C137.17 207.455 136.555 206.619 136.021 205.578C135.48 204.538 135.051 203.259 134.735 201.741C134.411 200.215 134.25 198.398 134.25 196.289V181.338C134.25 179.216 134.415 177.398 134.745 175.887C135.076 174.383 135.512 173.114 136.053 172.081C136.594 171.055 137.22 170.236 137.93 169.624C138.64 169.013 139.374 168.549 140.133 168.232C140.892 167.909 141.644 167.698 142.39 167.6C143.142 167.501 143.838 167.452 144.477 167.452C146.157 167.452 147.563 167.688 148.695 168.159C149.826 168.623 150.733 169.262 151.415 170.078C152.097 170.893 152.582 171.845 152.87 172.935C153.158 174.024 153.302 175.177 153.302 176.393C153.302 177.3 153.257 178.137 153.165 178.903C153.074 179.669 152.94 180.512 152.765 181.433H147.567V179.282C147.567 176.963 147.314 175.226 146.807 174.074C146.294 172.921 145.542 172.344 144.551 172.344C143.961 172.344 143.444 172.46 143.001 172.692C142.551 172.917 142.179 173.307 141.883 173.863C141.588 174.411 141.363 175.139 141.209 176.045C141.054 176.952 140.977 178.08 140.977 179.43V198.714C140.977 200.029 141.036 201.122 141.156 201.994C141.282 202.865 141.486 203.565 141.767 204.092C142.042 204.619 142.407 204.995 142.864 205.22C143.314 205.445 143.862 205.557 144.509 205.557C144.917 205.557 145.31 205.463 145.69 205.273C146.069 205.083 146.403 204.784 146.691 204.376C146.98 203.976 147.212 203.466 147.387 202.848C147.556 202.229 147.64 201.502 147.64 200.665V196.532H153.503V200.444C153.503 203.832 152.73 206.334 151.183 207.951C149.63 209.568 147.405 210.383 144.509 210.397ZM158.15 210.028V165.08H164.402V173.083L164.076 178.913C164.539 178.274 165.039 177.743 165.573 177.321C166.107 176.899 166.659 176.562 167.228 176.309C167.797 176.056 168.374 175.873 168.957 175.761C169.541 175.655 170.121 175.602 170.697 175.602C172.693 175.602 174.229 176.298 175.305 177.69C176.387 179.082 176.928 181.17 176.928 183.953V210.028H170.676V184.175C170.676 182.677 170.444 181.637 169.98 181.054C169.523 180.47 168.848 180.179 167.956 180.179C167.33 180.179 166.701 180.389 166.068 180.811C165.436 181.226 164.88 181.806 164.402 182.551V210.028H158.15ZM191.978 210.397C191.254 210.397 190.516 210.341 189.763 210.228C189.018 210.109 188.294 209.87 187.591 209.511C186.889 209.146 186.228 208.626 185.609 207.951C184.998 207.276 184.46 206.387 183.996 205.283C183.532 204.18 183.17 202.82 182.91 201.203C182.643 199.593 182.509 197.667 182.509 195.425V190.09C182.509 187.882 182.646 185.992 182.921 184.417C183.195 182.843 183.564 181.521 184.028 180.453C184.499 179.377 185.047 178.523 185.673 177.891C186.298 177.258 186.962 176.773 187.665 176.435C188.368 176.098 189.089 175.873 189.827 175.761C190.572 175.655 191.296 175.602 191.999 175.602C192.674 175.602 193.376 175.652 194.108 175.75C194.832 175.849 195.538 176.059 196.227 176.383C196.923 176.706 197.576 177.184 198.188 177.817C198.807 178.449 199.351 179.3 199.822 180.368C200.293 181.444 200.666 182.776 200.94 184.364C201.207 185.953 201.341 187.861 201.341 190.09V195.425C201.341 197.632 201.2 199.533 200.919 201.129C200.645 202.732 200.269 204.085 199.791 205.188C199.313 206.292 198.761 207.185 198.135 207.866C197.51 208.548 196.849 209.079 196.153 209.459C195.464 209.838 194.761 210.091 194.044 210.218C193.327 210.337 192.638 210.397 191.978 210.397ZM192.03 205.578C192.586 205.578 193.057 205.434 193.443 205.146C193.837 204.858 194.15 204.384 194.382 203.723C194.621 203.069 194.796 202.201 194.909 201.118C195.014 200.043 195.067 198.704 195.067 197.101V188.73C195.067 187.127 195.014 185.784 194.909 184.702C194.796 183.612 194.621 182.734 194.382 182.066C194.15 181.398 193.837 180.917 193.443 180.621C193.057 180.326 192.586 180.179 192.03 180.179C191.433 180.179 190.934 180.326 190.533 180.621C190.125 180.917 189.792 181.398 189.532 182.066C189.264 182.734 189.075 183.612 188.962 184.702C188.85 185.784 188.793 187.127 188.793 188.73V197.101C188.793 198.704 188.85 200.043 188.962 201.118C189.075 202.201 189.264 203.069 189.532 203.723C189.792 204.384 190.125 204.858 190.533 205.146C190.934 205.434 191.433 205.578 192.03 205.578ZM210.214 171.132C209.061 171.132 208.151 170.784 207.483 170.088C206.815 169.399 206.481 168.387 206.481 167.051C206.481 166.313 206.569 165.691 206.745 165.185C206.914 164.686 207.16 164.282 207.483 163.973C207.806 163.67 208.196 163.449 208.653 163.308C209.117 163.168 209.644 163.098 210.235 163.098C211.472 163.098 212.414 163.41 213.061 164.036C213.7 164.662 214.02 165.667 214.02 167.051C214.02 168.338 213.693 169.339 213.04 170.056C212.393 170.773 211.451 171.132 210.214 171.132ZM206.977 210.028V176.003H213.229V210.028H206.977ZM227.686 210.397C224.818 210.397 222.632 209.22 221.128 206.865C219.616 204.51 218.861 200.918 218.861 196.089V189.668C218.861 187.51 219.019 185.661 219.335 184.122C219.644 182.575 220.059 181.282 220.579 180.242C221.1 179.194 221.693 178.365 222.361 177.753C223.029 177.142 223.718 176.678 224.428 176.362C225.131 176.038 225.83 175.831 226.526 175.74C227.215 175.648 227.848 175.602 228.424 175.602C229.577 175.602 230.631 175.757 231.587 176.066C232.543 176.369 233.369 176.829 234.065 177.448C234.754 178.066 235.288 178.843 235.667 179.778C236.047 180.72 236.237 181.823 236.237 183.089C236.237 183.883 236.198 184.565 236.121 185.134C236.051 185.703 235.949 186.252 235.815 186.779H230.828V185.64C230.828 183.925 230.624 182.586 230.216 181.623C229.816 180.66 229.155 180.179 228.234 180.179C227.721 180.179 227.275 180.298 226.895 180.537C226.516 180.776 226.199 181.184 225.946 181.76C225.686 182.336 225.496 183.11 225.377 184.08C225.25 185.05 225.187 186.269 225.187 187.738V197.397C225.187 198.88 225.236 200.141 225.335 201.182C225.433 202.222 225.609 203.066 225.862 203.712C226.108 204.366 226.435 204.84 226.842 205.136C227.257 205.431 227.77 205.578 228.382 205.578C228.691 205.578 228.993 205.501 229.289 205.347C229.591 205.192 229.851 204.932 230.069 204.566C230.294 204.201 230.476 203.719 230.617 203.122C230.758 202.517 230.828 201.772 230.828 200.887V199.822H236.216V201.129C236.216 204.362 235.502 206.714 234.075 208.183C232.648 209.659 230.519 210.397 227.686 210.397ZM249.484 210.397C248.015 210.397 246.718 210.126 245.593 209.585C244.462 209.037 243.509 208.186 242.736 207.034C241.963 205.881 241.38 204.405 240.986 202.605C240.585 200.799 240.385 198.627 240.385 196.089V189.668C240.385 187.51 240.547 185.661 240.87 184.122C241.193 182.575 241.615 181.282 242.135 180.242C242.648 179.194 243.249 178.365 243.938 177.753C244.62 177.142 245.323 176.678 246.047 176.362C246.771 176.038 247.491 175.831 248.208 175.74C248.925 175.648 249.59 175.602 250.201 175.602C251.319 175.602 252.398 175.771 253.438 176.109C254.471 176.446 255.385 177.022 256.179 177.838C256.967 178.653 257.596 179.746 258.067 181.117C258.538 182.481 258.773 184.185 258.773 186.231C258.773 186.919 258.752 187.619 258.71 188.329C258.668 189.039 258.615 189.735 258.552 190.417C258.489 191.098 258.401 191.763 258.288 192.409C258.183 193.049 258.074 193.643 257.961 194.191H246.669V197.65C246.669 199.133 246.725 200.38 246.838 201.393C246.95 202.405 247.143 203.22 247.418 203.839C247.692 204.457 248.064 204.9 248.535 205.167C248.999 205.441 249.586 205.578 250.296 205.578C250.676 205.578 251.048 205.501 251.414 205.347C251.772 205.192 252.088 204.932 252.363 204.566C252.637 204.201 252.855 203.719 253.016 203.122C253.178 202.517 253.259 201.772 253.259 200.887V199.822H258.478V201.129C258.478 204.362 257.708 206.714 256.169 208.183C254.63 209.659 252.401 210.397 249.484 210.397ZM246.669 189.984H252.943C252.957 189.801 252.974 189.559 252.995 189.257C253.009 188.954 253.02 188.638 253.027 188.308C253.034 187.977 253.037 187.651 253.037 187.327C253.037 187.011 253.037 186.737 253.037 186.505C253.037 184.262 252.774 182.646 252.247 181.655C251.719 180.671 250.939 180.179 249.906 180.179C249.358 180.179 248.88 180.305 248.472 180.558C248.057 180.811 247.72 181.24 247.46 181.844C247.193 182.442 246.992 183.236 246.859 184.227C246.732 185.218 246.669 186.445 246.669 187.907V189.984Z" fill="#34303D"/>
</svg>
